<?xml version="1.0" standalone="no"?>
<!DOCTYPE svg PUBLIC "-//W3C//DTD SVG 20010904//EN"
 "http://www.w3.org/TR/2001/REC-SVG-20010904/DTD/svg10.dtd">
<svg version="1.0" xmlns="http://www.w3.org/2000/svg"
  viewBox="0 0 323.000000 92.000000"
 preserveAspectRatio="xMidYMid meet">

<g transform="translate(0.000000,92.000000) scale(0.100000,-0.100000)"
fill="#000000" stroke="none">
<path d="M411 798 c-26 -29 -114 -127 -195 -218 l-146 -164 0 -172 c0 -182 5
-203 48 -189 28 8 32 32 32 195 l0 146 155 174 c85 96 158 176 163 178 4 1 25
-18 46 -43 l38 -46 -46 -52 c-25 -29 -88 -97 -140 -152 l-95 -100 -1 -141 c0
-96 4 -144 12 -152 9 -9 86 -12 284 -12 234 0 275 2 288 16 13 13 16 44 16
179 l0 164 -32 38 c-270 314 -351 403 -369 403 -5 0 -31 -24 -58 -52z m320
-341 l59 -68 0 -129 0 -130 -225 0 -225 0 0 96 0 96 62 66 c34 37 94 100 133
140 l70 73 34 -38 c18 -21 60 -68 92 -106z"/>
<path d="M2218 728 c-3 -45 -6 -53 -24 -56 -16 -2 -21 -11 -22 -38 -1 -28 3
-36 23 -44 24 -9 25 -13 25 -102 0 -120 17 -157 78 -177 30 -9 53 -11 75 -4
29 8 32 13 35 50 l3 42 -35 -6 c-32 -5 -37 -3 -46 22 -6 16 -10 60 -8 99 l3
71 43 3 c42 3 42 3 42 43 l0 39 -45 0 -45 0 0 55 0 55 -49 0 -50 0 -3 -52z"/>
<path d="M1263 665 c-18 -8 -33 -10 -33 -5 0 6 -25 10 -55 10 l-55 0 0 -180 0
-180 55 0 55 0 0 120 c0 117 1 122 26 147 20 20 32 24 59 20 32 -5 33 -4 37
31 7 54 -23 66 -89 37z"/>
<path d="M1498 666 c-90 -32 -122 -77 -122 -171 -1 -104 54 -170 155 -189 48
-9 134 11 165 37 l25 22 -36 35 c-23 22 -38 31 -43 24 -26 -40 -99 -44 -136
-8 -48 49 -39 54 104 54 l130 0 0 34 c0 64 -35 123 -90 151 -41 21 -111 26
-152 11z m112 -96 c33 -33 24 -40 -50 -40 -76 0 -91 14 -48 44 31 22 74 20 98
-4z"/>
<path d="M1933 660 c-35 -16 -43 -16 -43 -5 0 11 -13 15 -50 15 l-50 0 0 -180
0 -180 49 0 49 0 4 126 c3 118 4 127 27 145 28 23 59 24 86 3 18 -13 20 -29
24 -144 l3 -130 49 0 49 0 0 136 c0 162 -10 194 -71 218 -51 21 -75 20 -126
-4z"/>
<path d="M2563 669 c-44 -13 -83 -62 -83 -106 0 -48 41 -87 114 -108 58 -17
80 -40 55 -56 -23 -15 -55 -10 -83 12 l-27 22 -34 -33 c-19 -18 -32 -37 -29
-42 3 -4 22 -17 42 -27 110 -54 226 -18 239 74 7 56 -15 79 -107 113 -76 28
-91 45 -57 66 14 9 26 6 58 -13 l42 -23 31 32 31 31 -29 24 c-16 13 -49 28
-72 34 -49 12 -48 12 -91 0z"/>
<path d="M2929 670 c-106 -32 -158 -160 -110 -267 35 -75 134 -119 205 -89 42
18 46 9 22 -49 -25 -59 -80 -72 -123 -29 l-25 26 -35 -34 -34 -33 30 -27 c77
-68 203 -57 265 24 38 52 46 100 46 296 l0 182 -55 0 c-30 0 -55 -4 -55 -9 0
-6 -16 -3 -35 5 -38 15 -57 16 -96 4z m104 -91 c37 -28 52 -88 33 -133 -29
-70 -96 -82 -138 -25 -38 51 -18 148 35 169 33 13 42 12 70 -11z"/>
</g>
</svg>
